<?xml version="1.0" encoding="iso-8859-1"?>
<!-- Uploaded to: SVG Repo, www.svgrepo.com, Generator: SVG Repo Mixer Tools -->
<svg version="1.1" id="Layer_1" xmlns="http://www.w3.org/2000/svg" xmlns:xlink="http://www.w3.org/1999/xlink" 
	 viewBox="0 0 464 464" xml:space="preserve">
<path style="fill:#D9CDC1;" d="M272,240c0,4,4,8,8,8h48c4,0,8-4,8-8v-48c0-4-4-8-8-8h-48c-4,0-8,4-8,8V240z M280,360h48c4,0,8-4,8-8
	v-48c0-4-4-8-8-8h-48c-4,0-8,4-8,8v48C272,356,276,360,280,360z M272,160c0,4,4,8,8,8h48c4,0,8-4,8-8v-48c0-4-4-8-8-8h-48
	c-4,0-8,4-8,8V160z M208,184c-4,0-8,4-8,8v48c0,4,4,8,8,8h48c4,0,8-4,8-8v-48c0-4-4-8-8-8H208z M352,96v272H112V96H352z M136,184
	c-4,0-8,4-8,8v48c0,4,4,8,8,8h48c4,0,8-4,8-8v-48c0-4-4-8-8-8H136z M208,168h48c4,0,8-4,8-8v-48c0-4-4-8-8-8h-48c-4,0-8,4-8,8v48
	C200,164,204,168,208,168z M136,360h48c4,0,8-4,8-8v-48c0-4-4-8-8-8h-48c-4,0-8,4-8,8v48C128,356,132,360,136,360z M208,296
	c-4,0-8,4-8,8v48c0,4,4,8,8,8h48c4,0,8-4,8-8v-48c0-4-4-8-8-8H208z M128,112v48c0,4,4,8,8,8h48c4,0,8-4,8-8v-48c0-4-4-8-8-8h-48
	C132,104,128,108,128,112z"/>
<g>
	<rect x="288" y="312" style="fill:#7AC943;" width="32" height="32"/>
	<rect x="288" y="200" style="fill:#7AC943;" width="32" height="32"/>
	<rect x="288" y="120" style="fill:#7AC943;" width="32" height="32"/>
</g>
<g>
	<rect x="288" y="40" style="fill:#42210B;" width="16" height="16"/>
	<path style="fill:#42210B;" d="M336,160c0,4-4,8-8,8h-48c-4,0-8-4-8-8v-48c0-4,4-8,8-8h48c4,0,8,4,8,8V160z M288,120v32h32v-32H288
		z"/>
	<path style="fill:#42210B;" d="M336,240c0,4-4,8-8,8h-48c-4,0-8-4-8-8v-48c0-4,4-8,8-8h48c4,0,8,4,8,8V240z M288,232h32v-32h-32
		V232z"/>
	<path style="fill:#42210B;" d="M328,360h-48c-4,0-8-4-8-8v-48c0-4,4-8,8-8h48c4,0,8,4,8,8v48C336,356,332,360,328,360z M288,344h32
		v-32h-32V344z"/>
	<rect x="192" y="40" style="fill:#42210B;" width="80" height="16"/>
</g>
<path style="fill:#FF9900;" d="M272,56V40h-80v16H272z M288,40v16h16V40H288z M132,16h200c11.2,0,20,8.8,20,20v44H112V36
	C112,24.8,120.8,16,132,16z"/>
<g>
	<rect x="216" y="312" style="fill:#E94545;" width="32" height="32"/>
	<rect x="216" y="200" style="fill:#E94545;" width="32" height="32"/>
	<rect x="216" y="120" style="fill:#E94545;" width="32" height="32"/>
</g>
<g>
	<path style="fill:#42210B;" d="M232,440c-12.8,0-24-10.4-24-24s11.2-24,24-24c13.6,0,24,10.4,24,24S245.6,440,232,440z M224,416
		c0,4,4,8,8,8s8-4,8-8s-4-8-8-8S224,412,224,416z"/>
	<path style="fill:#42210B;" d="M248,152v-32h-32v32H248z M256,168h-48c-4,0-8-4-8-8v-48c0-4,4-8,8-8h48c4,0,8,4,8,8v48
		C264,164,260,168,256,168z"/>
	<path style="fill:#42210B;" d="M216,200v32h32v-32H216z M200,192c0-4,4-8,8-8h48c4,0,8,4,8,8v48c0,4-4,8-8,8h-48c-4,0-8-4-8-8V192z
		"/>
	<path style="fill:#42210B;" d="M216,344h32v-32h-32V344z M200,304c0-4,4-8,8-8h48c4,0,8,4,8,8v48c0,4-4,8-8,8h-48c-4,0-8-4-8-8V304
		z"/>
</g>
<path style="fill:#FF9900;" d="M232,384H112v44c0,11.2,8.8,20,20,20h100h100c11.2,0,20-8.8,20-20v-44H232z M232,440
	c-13.6,0-24-11.2-24-24c0-13.6,10.4-24,24-24s24,10.4,24,24C256,428.8,245.6,440,232,440z"/>
<g>
	<rect x="144" y="312" style="fill:#FFC600;" width="32" height="32"/>
	<rect x="144" y="200" style="fill:#FFC600;" width="32" height="32"/>
	<rect x="144" y="120" style="fill:#FFC600;" width="32" height="32"/>
</g>
<g>
	<path style="fill:#42210B;" d="M176,120h-32v32h32V120z M128,160v-48c0-4,4-8,8-8h48c4,0,8,4,8,8v48c0,4-4,8-8,8h-48
		C132,168,128,164,128,160z"/>
	<path style="fill:#42210B;" d="M144,200v32h32v-32H144z M128,192c0-4,4-8,8-8h48c4,0,8,4,8,8v48c0,4-4,8-8,8h-48c-4,0-8-4-8-8V192z
		"/>
	<path style="fill:#42210B;" d="M144,312v32h32v-32H144z M128,352v-48c0-4,4-8,8-8h48c4,0,8,4,8,8v48c0,4-4,8-8,8h-48
		C132,360,128,356,128,352z"/>
	<path style="fill:#42210B;" d="M112,368h240V96H112V368z M132,16c-11.2,0-20,8.8-20,20v44h240V36c0-11.2-8.8-20-20-20H132z
		 M368,428c0,20-16,36-36,36H132c-20,0-36-16-36-36V36c0-20,16-36,36-36h200c20,0,36,16,36,36V428z M112,428c0,11.2,8.8,20,20,20
		h100h100c11.2,0,20-8.8,20-20v-44H232H112V428z"/>
</g>
<g>
	<path style="fill:#FF7D00;" d="M332,16H132c-11.2,0-20,8.8-20,20v44h8V36.8c0-7.2,5.6-12.8,12.8-12.8h197.6c8,0,13.6,5.6,13.6,12.8
		V80h8V36C352,24.8,343.2,16,332,16z"/>
	<path style="fill:#FF7D00;" d="M344,384v42.4c0,7.2-5.6,13.6-13.6,13.6H133.6c-7.2,0-13.6-5.6-13.6-13.6V384h-8v44
		c0,11.2,8.8,20,20,20h100h100c11.2,0,20-8.8,20-20v-44H344z"/>
</g>
<path style="fill:#FFF8EF;" d="M336,112v48c0,4-4,8-8,8h-48c-4,0-8-4-8-8v-48c0-4,4-8,8-8h-24c4,0,8,4,8,8v48c0,4-4,8-8,8h-48
	c-4,0-8-4-8-8v-48c0-4,4-8,8-8h-24c4,0,8,4,8,8v48c0,4-4,8-8,8h-48c-4,0-8-4-8-8v-48c0-4,4-8,8-8h-16v256h16c-4,0-8-4-8-8v-48
	c0-4,4-8,8-8h48c4,0,8,4,8,8v48c0,4-4,8-8,8h24c-4,0-8-4-8-8v-48c0-4,4-8,8-8h48c4,0,8,4,8,8v48c0,4-4,8-8,8h24c-4,0-8-4-8-8v-48
	c0-4,4-8,8-8h48c4,0,8,4,8,8v48c0,4-4,8-8,8h16V104h-16C332,104,336,108,336,112z M192,240c0,4-4,8-8,8h-48c-4,0-8-4-8-8v-48
	c0-4,4-8,8-8h48c4,0,8,4,8,8V240z M264,240c0,4-4,8-8,8h-48c-4,0-8-4-8-8v-48c0-4,4-8,8-8h48c4,0,8,4,8,8V240z M336,240c0,4-4,8-8,8
	h-48c-4,0-8-4-8-8v-48c0-4,4-8,8-8h48c4,0,8,4,8,8V240z"/>
</svg>